<svg width="16" height="16" viewBox="0 0 16 16" fill="none" xmlns="http://www.w3.org/2000/svg">
<g clip-path="url(#clip0_1387_516)">
<path d="M11.76 0H3.6C1.61177 0 0 1.61177 0 3.6V11.76C0 13.7482 1.61177 15.36 3.6 15.36H11.76C13.7482 15.36 15.36 13.7482 15.36 11.76V3.6C15.36 1.61177 13.7482 0 11.76 0Z" fill="#0277BD"/>
<path d="M3.22506 6.15884L3.39678 8.07536H7.68564V6.15884H3.22506ZM7.68558 2.27979H2.87988L3.05412 4.19631H7.68558V2.27979ZM7.68558 13.1302V11.1363L7.67718 11.1385L5.54274 10.5622L5.4063 9.03362H3.4824L3.7509 12.0429L7.67676 13.1327L7.68558 13.1302Z" fill="#EBEBEB"/>
<path d="M10.0387 8.07536L9.81621 10.5609L7.67871 11.1379V13.1317L11.6077 12.0429L11.6365 11.719L12.0869 6.67352L12.1336 6.15884L12.4796 2.27979H7.67871V4.19631H10.3793L10.2049 6.15884H7.67871V8.07536H10.0387Z" fill="white"/>
</g>
<defs>
<clipPath id="clip0_1387_516">
<rect width="15.36" height="15.36" fill="white"/>
</clipPath>
</defs>
</svg>
