<svg width="14" height="14" viewBox="0 0 14 14" fill="none" xmlns="http://www.w3.org/2000/svg">
<g clip-path="url(#clip0_1387_577)">
<path d="M10.7188 0H3.28125C1.46907 0 0 1.46907 0 3.28125V10.7188C0 12.5309 1.46907 14 3.28125 14H10.7188C12.5309 14 14 12.5309 14 10.7188V3.28125C14 1.46907 12.5309 0 10.7188 0Z" fill="#F4F2ED"/>
<path d="M7.92608 2.08152L10.9763 2.07812L5.85889 7.19283L4.52523 8.51905L3.00781 6.99978L7.92608 2.08152ZM7.89769 6.6483C7.93729 6.59602 8.01013 6.62184 8.06542 6.61511L10.9736 6.61582L8.32311 9.26379L6.79782 7.74785L7.89769 6.6483Z" fill="#44D1FD"/>
<path d="M5.27734 9.26607L6.79777 7.74756L8.32305 9.2635L8.3294 9.27022L6.79815 10.7873L5.27734 9.26607Z" fill="#1FBCFD"/>
<path d="M6.79883 10.7875L8.33008 9.27051L10.9754 11.9184C9.97896 11.9207 8.98288 11.9177 7.98686 11.9199C7.93009 11.9326 7.89498 11.8807 7.85873 11.8486L6.79883 10.7875Z" fill="#08589C"/>
</g>
<defs>
<clipPath id="clip0_1387_577">
<rect width="14" height="14" fill="white"/>
</clipPath>
</defs>
</svg>
