<svg width="16" height="16" viewBox="0 0 16 16" fill="none" xmlns="http://www.w3.org/2000/svg">
<path d="M11.76 0H3.6C1.61177 0 0 1.61177 0 3.6V11.76C0 13.7482 1.61177 15.36 3.6 15.36H11.76C13.7482 15.36 15.36 13.7482 15.36 11.76V3.6C15.36 1.61177 13.7482 0 11.76 0Z" fill="#F03C2E"/>
<mask id="mask0_1387_485" style="mask-type:luminance" maskUnits="userSpaceOnUse" x="1" y="1" width="13" height="13">
<path d="M1.67969 1.68018H13.6797V13.6802H1.67969V1.68018Z" fill="white"/>
</mask>
<g mask="url(#mask0_1387_485)">
<path d="M13.4536 7.1458L8.21444 1.90666C8.10643 1.79851 7.96874 1.72486 7.81883 1.69503C7.66892 1.66519 7.51353 1.68052 7.37234 1.73908C7.2786 1.77793 7.19344 1.83487 7.12172 1.90666L6.03422 2.99416L7.41422 4.37416C7.73522 4.26166 8.10272 4.33852 8.35844 4.5943C8.48018 4.71626 8.56516 4.87 8.60368 5.03796C8.64221 5.20592 8.63272 5.38133 8.5763 5.54416L9.90644 6.8743C10.2282 6.7633 10.5994 6.83488 10.8563 7.09252C10.985 7.22113 11.0726 7.38503 11.108 7.56346C11.1435 7.74189 11.1253 7.92683 11.0556 8.09488C10.9621 8.32017 10.7831 8.49915 10.5577 8.59246C10.3324 8.68576 10.0792 8.68576 9.85382 8.59246C9.74222 8.5462 9.64082 8.47846 9.55544 8.39302C9.28544 8.12302 9.21872 7.72552 9.35522 7.39288L8.11472 6.15238V9.4168C8.20477 9.46135 8.28706 9.5201 8.35844 9.5908C8.5309 9.76325 8.62779 9.99716 8.62779 10.241C8.62779 10.4849 8.5309 10.7188 8.35844 10.8913C8.18599 11.0638 7.95208 11.1606 7.70819 11.1606C7.4643 11.1606 7.2304 11.0638 7.05794 10.8913C6.92922 10.7627 6.84155 10.5989 6.80603 10.4205C6.7705 10.2421 6.78872 10.0571 6.85838 9.88906C6.90463 9.77747 6.97244 9.67612 7.05794 9.5908C7.1468 9.5023 7.24544 9.43516 7.35908 9.39016V6.09538C7.24633 6.04928 7.14394 5.98108 7.05794 5.8948C6.92883 5.76582 6.84104 5.60131 6.80578 5.42225C6.77052 5.24319 6.78937 5.05768 6.85994 4.88938L5.49872 3.529L1.90622 7.11772C1.79807 7.22579 1.72441 7.36352 1.69456 7.51347C1.66471 7.66343 1.68001 7.81886 1.73852 7.96012C1.77741 8.0539 1.8344 8.1391 1.90622 8.21086L7.14572 13.4496C7.21745 13.5213 7.30261 13.5783 7.39634 13.6172C7.58571 13.6955 7.79845 13.6955 7.98782 13.6172C8.08155 13.5783 8.16671 13.5213 8.23844 13.4496L13.4536 8.24272C13.5254 8.17096 13.5824 8.08576 13.6212 7.99198C13.6601 7.89821 13.6801 7.79769 13.6801 7.69618C13.6801 7.59465 13.6601 7.49412 13.6213 7.40033C13.5824 7.30654 13.5254 7.22133 13.4536 7.14958" fill="white"/>
</g>
</svg>
