<svg width="16" height="16" viewBox="0 0 16 16" fill="none" xmlns="http://www.w3.org/2000/svg">
<path d="M11.76 0H3.6C1.61177 0 0 1.61177 0 3.6V11.76C0 13.7482 1.61177 15.36 3.6 15.36H11.76C13.7482 15.36 15.36 13.7482 15.36 11.76V3.6C15.36 1.61177 13.7482 0 11.76 0Z" fill="#242938"/>
<path d="M7.68072 1.7998C4.3674 1.7998 1.68066 4.486 1.68066 7.79986C1.68066 10.4508 3.39984 12.6999 5.78388 13.4933C6.0837 13.5488 6.1938 13.3631 6.1938 13.2047C6.1938 13.0616 6.18822 12.5889 6.18564 12.0876C4.51644 12.4505 4.16424 11.3796 4.16424 11.3796C3.89124 10.6861 3.498 10.5017 3.498 10.5017C2.95362 10.1293 3.53904 10.137 3.53904 10.137C4.14156 10.1793 4.45884 10.7553 4.45884 10.7553C4.99398 11.6726 5.86248 11.4074 6.20484 11.2541C6.25872 10.8662 6.41418 10.6016 6.58578 10.4517C5.25312 10.3 3.85218 9.7855 3.85218 7.48648C3.85218 6.8314 4.08654 6.29614 4.47036 5.87596C4.40802 5.72482 4.20264 5.11456 4.52844 4.28812C4.52844 4.28812 5.03232 4.1269 6.17892 4.90312C6.65754 4.77022 7.17078 4.70356 7.68072 4.70128C8.1906 4.70356 8.70432 4.77022 9.18378 4.90318C10.329 4.12684 10.8322 4.28818 10.8322 4.28818C11.1587 5.11456 10.9533 5.72488 10.891 5.87596C11.2757 6.29614 11.5085 6.8314 11.5085 7.48648C11.5085 9.79102 10.1048 10.2984 8.76876 10.4469C8.98398 10.6332 9.17574 10.9983 9.17574 11.5581C9.17574 12.3609 9.16878 13.007 9.16878 13.2047C9.16878 13.3643 9.27678 13.5514 9.58092 13.4925C11.9636 12.6982 13.6807 10.4499 13.6807 7.79986C13.6807 4.48606 10.9943 1.7998 7.68072 1.7998ZM3.9279 10.347C3.9147 10.3768 3.86778 10.3857 3.82506 10.3653C3.7815 10.3457 3.75708 10.305 3.77118 10.2752C3.78408 10.2444 3.83112 10.2359 3.8745 10.2565C3.91812 10.2761 3.94296 10.3171 3.9279 10.347ZM4.22304 10.6103C4.19442 10.6369 4.13844 10.6245 4.10052 10.5826C4.06128 10.5408 4.0539 10.4849 4.08294 10.4579C4.1124 10.4314 4.1667 10.4438 4.206 10.4856C4.24524 10.528 4.25292 10.5835 4.22304 10.6103ZM4.42548 10.9473C4.3887 10.9728 4.32858 10.9489 4.29144 10.8955C4.25466 10.8422 4.25466 10.7782 4.29222 10.7525C4.32948 10.7269 4.3887 10.7499 4.42638 10.8029C4.46304 10.8572 4.46304 10.9212 4.42548 10.9473ZM4.7679 11.3375C4.73502 11.3738 4.665 11.364 4.6137 11.3145C4.56126 11.2662 4.54662 11.1975 4.57962 11.1612C4.61292 11.1249 4.68336 11.1351 4.73502 11.1842C4.7871 11.2325 4.803 11.3016 4.7679 11.3375ZM5.21046 11.4692C5.19594 11.5163 5.1285 11.5376 5.06052 11.5176C4.99272 11.4971 4.94826 11.442 4.962 11.3945C4.9761 11.3472 5.04384 11.325 5.1123 11.3463C5.1801 11.3668 5.22456 11.4215 5.21046 11.4692ZM5.7141 11.5251C5.71578 11.5746 5.65818 11.6156 5.58684 11.6165C5.51508 11.6181 5.45706 11.5781 5.45628 11.5294C5.45628 11.4794 5.51262 11.4388 5.58432 11.4376C5.65572 11.4362 5.7141 11.4759 5.7141 11.5251ZM6.20886 11.5062C6.21744 11.5544 6.16788 11.604 6.09702 11.6172C6.02736 11.63 5.96286 11.6001 5.95404 11.5523C5.9454 11.5028 5.99586 11.4532 6.0654 11.4404C6.13638 11.4281 6.19986 11.4571 6.20886 11.5062Z" fill="white"/>
</svg>
