<svg width="16" height="16" viewBox="0 0 16 16" fill="none" xmlns="http://www.w3.org/2000/svg">
<g clip-path="url(#clip0_1387_528)">
<path d="M11.76 0H3.6C1.61177 0 0 1.61177 0 3.6V11.76C0 13.7482 1.61177 15.36 3.6 15.36H11.76C13.7482 15.36 15.36 13.7482 15.36 11.76V3.6C15.36 1.61177 13.7482 0 11.76 0Z" fill="#E14E1D"/>
<path d="M2.87988 2.27979L3.39648 8.07537H10.0391L9.81618 10.5612L7.67742 11.1394L5.54268 10.562L5.39994 8.96588H3.47628L3.75138 12.0427L7.677 13.1331L11.6076 12.0427L12.1346 6.15908H5.14932L4.97394 4.19649H12.3082L12.4799 2.27979H2.87988Z" fill="white"/>
<path d="M7.67988 2.27979H2.87988L3.39648 8.07537H7.67988V6.15908H5.14932L4.97394 4.19649H7.67988V2.27979ZM7.67988 11.1386L7.67742 11.1394L5.54268 10.562L5.39994 8.96588H3.47628L3.75138 12.0427L7.677 13.1331L7.67994 13.1322L7.67988 11.1386Z" fill="#EBEBEB"/>
</g>
<defs>
<clipPath id="clip0_1387_528">
<rect width="15.36" height="15.36" fill="white"/>
</clipPath>
</defs>
</svg>
