<svg width="16" height="16" viewBox="0 0 16 16" fill="none" xmlns="http://www.w3.org/2000/svg">
<g clip-path="url(#clip0_1387_593)">
<path d="M12.25 0H3.75C1.67893 0 0 1.67893 0 3.75V12.25C0 14.3211 1.67893 16 3.75 16H12.25C14.3211 16 16 14.3211 16 12.25V3.75C16 1.67893 14.3211 0 12.25 0Z" fill="url(#paint0_linear_1387_593)"/>
<path d="M4.95268 4.29619C4.32856 5.20981 4.40631 6.39825 4.88181 7.36781L4.91681 7.43687L4.94043 7.48063C4.94481 7.48913 4.94981 7.4975 4.95437 7.50575C4.96262 7.52113 4.97087 7.53588 4.978 7.551L5.0235 7.6305L5.04943 7.67425L5.10225 7.75838L5.12587 7.79381C5.1495 7.83163 5.17618 7.86919 5.20243 7.90625L5.20456 7.90919C5.20868 7.91512 5.21331 7.921 5.21643 7.92694C5.23906 7.95881 5.26362 7.99025 5.28725 8.02144L5.3135 8.05544L5.37787 8.13606L5.40243 8.16606C5.43173 8.2014 5.46166 8.23621 5.49225 8.2705L5.49412 8.27237C5.49531 8.27387 5.4965 8.27475 5.49768 8.27625C5.52727 8.30971 5.55766 8.3424 5.58887 8.37431L5.61818 8.40431L5.69106 8.47712L5.72081 8.50594C5.7536 8.53731 5.78687 8.56815 5.82062 8.59844L5.83956 8.61494L5.93018 8.69294L5.96768 8.72344L6.04331 8.7825L6.08375 8.81381L6.19931 8.89825C6.20225 8.90025 6.20481 8.90237 6.20781 8.90437C6.23493 8.92331 6.2625 8.94163 6.29012 8.95994L6.32581 8.98412L6.45481 9.0645L6.4905 9.08494L6.58737 9.14019C6.60506 9.14988 6.62318 9.15913 6.64087 9.16831L6.71012 9.20375L6.72606 9.21156L6.75443 9.2255L6.86425 9.27725L6.88756 9.28906C6.92993 9.30785 6.97262 9.32592 7.01562 9.34325L7.04681 9.35581L7.16762 9.40138L7.18275 9.40681C7.22738 9.42256 7.27228 9.43754 7.31743 9.45175L7.34993 9.46162C7.39718 9.47581 7.4415 9.49275 7.489 9.50181C10.5071 10.0637 11.3841 7.65581 11.3841 7.65581C10.6477 8.63281 9.34075 8.89031 8.1025 8.60362C8.05556 8.59181 8.01006 8.578 7.96425 8.56419L7.92975 8.55238C7.88518 8.53841 7.84084 8.52372 7.79675 8.50831L7.77843 8.50156C7.73911 8.48739 7.7 8.47261 7.66112 8.45725L7.62806 8.444C7.58549 8.42694 7.54325 8.40906 7.50137 8.39037L7.47612 8.37906L7.36931 8.32825L7.33862 8.31313C7.31086 8.29917 7.28328 8.28488 7.25587 8.27025L7.20075 8.24069C7.1674 8.22245 7.13439 8.20359 7.10175 8.18413L7.06831 8.16519C7.02489 8.13909 6.98189 8.11231 6.93931 8.08487C6.9275 8.07719 6.91612 8.06906 6.90443 8.06125L6.81262 7.99913L6.78312 7.97788L6.69631 7.91406L6.65775 7.8845L6.57943 7.82212L6.5445 7.79381L6.447 7.71112C6.44324 7.70785 6.4393 7.7048 6.43518 7.702C6.40053 7.67087 6.36636 7.6392 6.33268 7.607L6.30381 7.57869L6.23006 7.50519L6.20131 7.47563C6.17059 7.44374 6.14046 7.4113 6.11093 7.37831C6.1095 7.37663 6.10781 7.37512 6.10643 7.37356C6.07518 7.33873 6.04462 7.30329 6.01475 7.26725L5.99075 7.23819L5.92462 7.15513L5.90037 7.12444L5.82418 7.02106C5.13668 6.06594 4.89093 4.74869 5.43906 3.66681L4.95268 4.29619ZM6.89012 3.52644C6.43887 4.188 6.46331 5.07331 6.81537 5.77294C6.87425 5.8904 6.94094 6.00378 7.015 6.11231C7.08262 6.211 7.15762 6.32856 7.24737 6.40769C7.27987 6.44313 7.31387 6.47856 7.34862 6.51475C7.35737 6.52381 7.36637 6.53244 7.37531 6.54156C7.40906 6.57502 7.44356 6.60767 7.47881 6.6395L7.48306 6.64325C7.52278 6.67855 7.5634 6.71283 7.60487 6.74606L7.63231 6.76775C7.67356 6.80025 7.71568 6.8316 7.75868 6.86181C7.75981 6.86277 7.761 6.86369 7.76225 6.86456C7.78112 6.87788 7.80062 6.8905 7.81987 6.90325C7.82912 6.90944 7.83781 6.91594 7.84706 6.92169C7.87789 6.94185 7.90912 6.96135 7.94075 6.98019L7.954 6.988L8.03668 7.03525C8.04637 7.04081 8.05625 7.04563 8.06618 7.05081L8.12525 7.08131C8.12825 7.08288 8.13118 7.084 8.134 7.08544C8.17381 7.1055 8.21387 7.12444 8.25487 7.14275C8.26362 7.14663 8.27256 7.15019 8.28156 7.15394C8.31439 7.16821 8.34748 7.18188 8.38081 7.19494L8.42331 7.21081C8.45348 7.22198 8.48381 7.23273 8.51431 7.24306L8.55537 7.25637C8.59875 7.27019 8.64162 7.28744 8.68687 7.29513C11.0171 7.68831 11.5552 5.86094 11.5552 5.86094C11.0703 6.57213 10.1312 6.91169 9.12893 6.64681C9.08461 6.635 9.04062 6.62199 8.997 6.60781C8.98362 6.60369 8.97056 6.59931 8.95731 6.596C8.92636 6.5858 8.8956 6.575 8.86506 6.56362L8.82331 6.54781C8.78987 6.536 8.75681 6.52125 8.72412 6.50706C8.71512 6.50312 8.70612 6.49963 8.69731 6.4955C8.6562 6.4775 8.61562 6.4583 8.57562 6.43794C8.55506 6.42769 8.53487 6.41694 8.51462 6.40625L8.47943 6.38788C8.45346 6.37357 8.42775 6.3588 8.40231 6.34356L8.38387 6.33175C8.35242 6.31293 8.32131 6.29356 8.29056 6.27362C8.28106 6.26744 8.27187 6.26181 8.26243 6.2545L8.20193 6.21375C8.1592 6.1835 8.11721 6.15222 8.076 6.11994L8.04762 6.09725C7.609 5.7445 7.26118 5.2625 7.09593 4.71588C6.92262 4.14881 6.96006 3.51263 7.26131 2.99625L6.89012 3.52644ZM8.51925 2.95138C8.25318 3.35019 8.22712 3.84544 8.41293 4.28587C8.60762 4.75331 9.00656 5.12013 9.47212 5.29394C9.49131 5.30125 9.51056 5.30769 9.53118 5.31437L9.55675 5.32263C9.58412 5.33138 9.61143 5.3415 9.63968 5.347C10.9264 5.60013 11.2754 4.6745 11.3682 4.53825C11.0625 4.98662 10.5487 5.09425 9.91837 4.93844C9.86875 4.926 9.81381 4.90769 9.76475 4.8905C9.70309 4.86812 9.64266 4.84252 9.58368 4.81381C9.47152 4.75875 9.36513 4.6926 9.26612 4.61637C8.70081 4.18044 8.35031 3.349 8.71843 2.67188M5.67756 11.4175L5.59043 11.7266L5.67756 11.4176V11.4175ZM8.23925 10.7099H7.83993C7.82862 10.7103 7.81776 10.7144 7.80895 10.7215C7.80014 10.7286 7.79387 10.7384 7.79106 10.7493L7.5075 12.0615C7.50467 12.0724 7.49841 12.0821 7.48962 12.0892C7.48084 12.0963 7.47002 12.1004 7.45875 12.1008H7.17606C6.89631 12.1008 6.92868 11.9074 6.987 11.6424L6.98881 11.6344L7.02268 11.4537L7.03731 11.3792L7.16637 10.7493C7.1676 10.7445 7.16768 10.7395 7.16661 10.7346C7.16554 10.7298 7.16335 10.7253 7.16022 10.7214C7.15708 10.7176 7.15309 10.7145 7.14855 10.7125C7.14402 10.7105 7.13908 10.7095 7.13412 10.7097H6.72418C6.71288 10.7101 6.702 10.7142 6.69321 10.7213C6.68442 10.7284 6.6782 10.7382 6.6755 10.7492L6.49081 11.6251C6.38925 12.0886 6.41618 12.5308 6.96812 12.5446L6.98406 12.5449H7.85025C7.86154 12.5444 7.8724 12.5404 7.88119 12.5333C7.88999 12.5261 7.89625 12.5164 7.89906 12.5054L8.27256 10.7492C8.27731 10.7275 8.26275 10.7097 8.24068 10.7097L8.23925 10.7099ZM9.83256 12.1054C9.85481 12.1054 9.868 12.1231 9.86481 12.1449L9.82606 12.3345L9.83256 12.1054Z" fill="white"/>
<path d="M8.76382 11.8614C8.76351 11.8406 8.78713 11.8049 8.80932 11.8049L8.75945 11.8041C8.73582 12.0302 8.76382 11.8614 8.76382 11.8614ZM9.83213 12.1055C9.85438 12.1055 9.86757 12.1232 9.86438 12.1449L9.81926 12.3653L9.83213 12.1055ZM9.0892 12.5676H9.07051H9.09157H9.0892ZM3.21801 11.8661L3.28007 11.5911L3.2092 11.9053L3.20088 11.9448L3.21813 11.8659L3.21801 11.8661ZM3.96063 10.7054H3.52201C3.51067 10.7058 3.49977 10.7099 3.49091 10.717C3.48205 10.7241 3.47569 10.7338 3.47276 10.7448L3.38957 11.111C3.38819 11.1157 3.38797 11.1207 3.38893 11.1256C3.38988 11.1304 3.39199 11.1349 3.39507 11.1388C3.39816 11.1427 3.40212 11.1457 3.40663 11.1477C3.41115 11.1497 3.41608 11.1506 3.42101 11.1503H3.86307C3.87437 11.1499 3.88523 11.1459 3.89404 11.1388C3.90285 11.1317 3.90913 11.1219 3.91195 11.111L3.99232 10.7439C3.99701 10.7223 3.98282 10.7046 3.96045 10.7046L3.96063 10.7054ZM2.59095 13.2882L2.9527 13.2911C2.84588 13.2911 2.66957 13.2891 2.59082 13.2882L2.59095 13.2882Z" fill="white"/>
<path d="M3.83322 11.2769H3.39103C3.37969 11.2773 3.36879 11.2814 3.35993 11.2885C3.35107 11.2955 3.34471 11.3053 3.34178 11.3162L3.21772 11.8662L3.20047 11.9452L3.08234 12.5067C3.07651 12.5329 3.06942 12.5588 3.06109 12.5843C3.06109 12.5843 2.9784 12.8301 2.83972 12.8273L2.70209 12.8247C2.6908 12.8251 2.6799 12.829 2.67098 12.8359C2.66206 12.8428 2.65557 12.8524 2.65247 12.8632L2.5609 13.2487C2.55947 13.2534 2.55919 13.2584 2.56008 13.2632C2.56097 13.2681 2.56301 13.2726 2.56603 13.2765C2.56905 13.2804 2.57296 13.2835 2.57742 13.2856C2.58189 13.2877 2.58679 13.2886 2.59172 13.2884L2.95359 13.2914C3.30047 13.2914 3.48322 13.0991 3.60047 12.5462L3.86628 11.3176C3.87103 11.2961 3.85659 11.2783 3.8344 11.2783L3.83322 11.2769ZM10.1136 12.5454C10.0914 12.5454 10.0782 12.5277 10.0817 12.506L10.4143 10.9482L10.1136 12.5454Z" fill="white"/>
<path d="M10.0869 12.5255C10.0842 12.5146 10.0858 12.488 10.0905 12.4664L10.2483 11.7269L10.082 12.5057C10.0772 12.5275 10.0916 12.5452 10.1138 12.5452H10.1543C10.1321 12.5452 10.0895 12.5363 10.0869 12.5255ZM10.55 12.5363C10.538 12.5411 10.5098 12.5452 10.4876 12.5452H10.528C10.5393 12.5447 10.5501 12.5407 10.5589 12.5335C10.5676 12.5264 10.5738 12.5166 10.5765 12.5056L10.5845 12.4662C10.5801 12.4879 10.5609 12.5315 10.5491 12.5363H10.55ZM11.9556 11.0523L11.9739 11.1279C11.979 11.1496 11.965 11.1671 11.9428 11.1672M10.7028 11.8797L10.7191 11.8013L10.7825 11.5042L10.7107 11.8406L10.7028 11.8796V11.8797ZM10.4201 10.9224L10.4063 10.9873L10.2484 11.7269L10.4148 10.948L10.4201 10.9225V10.9224Z" fill="white"/>
<path d="M11.9739 11.1279L11.9556 11.0522L11.9284 10.9341C11.8925 10.7947 11.7871 10.714 11.5582 10.714L10.5044 10.7133C10.4931 10.7137 10.4822 10.7177 10.4734 10.7249C10.4647 10.732 10.4585 10.7418 10.4558 10.7527L10.4394 10.8299L10.4158 10.9465L10.0916 12.4649C10.0869 12.4867 10.0854 12.5122 10.0881 12.524C10.0908 12.5358 10.1333 12.5437 10.1554 12.5437H10.4886C10.5108 12.5437 10.5388 12.5397 10.5509 12.5349C10.5631 12.53 10.5809 12.4876 10.5864 12.4647L10.7128 11.8392L10.8481 11.2056C10.8509 11.1946 10.8571 11.1849 10.8659 11.1779C10.8747 11.1708 10.8855 11.1667 10.8968 11.1662L11.9449 11.1657C11.9671 11.1657 11.9811 11.1481 11.976 11.1264L11.9739 11.1279ZM13.3234 10.4435L13.2427 10.4438H12.9072C12.8949 10.4446 12.883 10.448 12.8721 10.4537C12.8612 10.4595 12.8517 10.4674 12.8441 10.4771L12.1022 11.564C12.0897 11.5823 12.0754 11.5796 12.0703 11.5581L12.0157 11.3186C12.0128 11.3077 12.0064 11.2979 11.9975 11.2909C11.9887 11.2838 11.9778 11.2797 11.9664 11.2793H11.4896C11.4673 11.2793 11.4541 11.2967 11.4603 11.3181L11.6729 12.0668C11.679 12.0881 11.6794 12.1231 11.6741 12.1447L11.5796 12.5071C11.5779 12.5118 11.5775 12.5167 11.5783 12.5216C11.5791 12.5264 11.5811 12.531 11.5841 12.5349C11.5872 12.5387 11.5911 12.5418 11.5956 12.5437C11.6001 12.5457 11.605 12.5466 11.6099 12.5462H12.0824C12.0938 12.5457 12.1048 12.5417 12.1139 12.5347C12.1229 12.5277 12.1295 12.5181 12.1328 12.5072L12.2273 12.1449C12.2347 12.1194 12.2463 12.0952 12.2616 12.0736L13.4673 10.4748C13.4806 10.4571 13.4734 10.4427 13.4512 10.4429L13.3248 10.4437L13.3234 10.4435ZM9.534 11.3811C9.53119 11.4047 9.509 11.4225 9.48675 11.4225H8.88188C8.86101 11.4225 8.85038 11.4083 8.85357 11.3906L8.85401 11.3874L8.85675 11.3771C8.91582 11.2236 9.03219 11.1227 9.25319 11.1227C9.50213 11.1227 9.55069 11.2444 9.53382 11.3811H9.534ZM9.35657 10.6832C8.58044 10.6832 8.39651 11.1543 8.29338 11.6298C8.19013 12.1145 8.19907 12.5678 9.00219 12.5678H9.1295L9.22757 12.5674L9.73863 12.5644C9.74984 12.5639 9.76059 12.5597 9.76926 12.5526C9.77792 12.5455 9.78404 12.5357 9.78669 12.5248L9.86432 12.1454C9.86882 12.1236 9.85432 12.1059 9.83207 12.1059H9.11C8.82294 12.1059 8.73757 12.0296 8.76894 11.8052H9.92319C9.93248 11.8052 9.94153 11.8023 9.94915 11.797C9.95678 11.7917 9.96263 11.7842 9.96594 11.7755C9.96728 11.7723 9.96822 11.7689 9.96876 11.7654C10.1401 11.1192 10.0909 10.6837 9.35682 10.6837L9.35657 10.6832ZM5.68794 11.3786L5.67707 11.4172L5.58994 11.7262L5.50275 12.035C5.49911 12.0459 5.49227 12.0554 5.48313 12.0623C5.47398 12.0692 5.46296 12.0732 5.4515 12.0737H4.99001C4.64007 12.0737 4.55488 11.8001 4.64007 11.3964C4.72513 10.9835 4.89232 10.7267 5.23669 10.7008C5.70732 10.6654 5.80138 10.9964 5.68794 11.3784V11.3786ZM6.00432 12.0501C6.00432 12.0501 6.22169 11.5221 6.27132 11.2169C6.33863 10.8085 6.13432 10.2163 5.34457 10.2163C4.55925 10.2163 4.21832 10.7817 4.08832 11.3977C3.95832 12.0167 4.12869 12.5597 4.90932 12.5554L6.10082 12.5511C6.11225 12.5505 6.12324 12.5464 6.13227 12.5394C6.14131 12.5324 6.14796 12.5228 6.15132 12.5118L6.25169 12.1293C6.25328 12.1247 6.25372 12.1197 6.25295 12.1149C6.25219 12.1101 6.25026 12.1055 6.24732 12.1016C6.24433 12.0976 6.24041 12.0945 6.23591 12.0925C6.23141 12.0905 6.22648 12.0897 6.22157 12.0901L6.02938 12.0889C6.0105 12.0887 5.99982 12.0766 6.00194 12.0606C6.00241 12.0575 6.00321 12.0545 6.00432 12.0516V12.0501Z" fill="white"/>
<path d="M9.8918 11.6969C9.8918 11.7039 9.88902 11.7106 9.88405 11.7156C9.87909 11.7206 9.87236 11.7233 9.86534 11.7233C9.85832 11.7233 9.85158 11.7206 9.84662 11.7156C9.84166 11.7106 9.83887 11.7039 9.83887 11.6969C9.83887 11.6899 9.84166 11.6831 9.84662 11.6782C9.85158 11.6732 9.85832 11.6704 9.86534 11.6704C9.87236 11.6704 9.87909 11.6732 9.88405 11.6782C9.88902 11.6831 9.8918 11.6899 9.8918 11.6969Z" fill="white"/>
</g>
<defs>
<linearGradient id="paint0_linear_1387_593" x1="0" y1="0" x2="16" y2="16" gradientUnits="userSpaceOnUse">
<stop stop-color="#FF5C00"/>
<stop offset="1" stop-color="#FF0F00"/>
</linearGradient>
<clipPath id="clip0_1387_593">
<rect width="16" height="16" fill="white"/>
</clipPath>
</defs>
</svg>
