<svg width="16" height="16" viewBox="0 0 16 16" fill="none" xmlns="http://www.w3.org/2000/svg">
<g clip-path="url(#clip0_1387_510)">
<path d="M11.76 0H3.6C1.61177 0 0 1.61177 0 3.6V11.76C0 13.7482 1.61177 15.36 3.6 15.36H11.76C13.7482 15.36 15.36 13.7482 15.36 11.76V3.6C15.36 1.61177 13.7482 0 11.76 0Z" fill="#F0DB4F"/>
<path d="M4.03912 12.836L5.21452 12.1246C5.44132 12.5267 5.6476 12.8669 6.14242 12.8669C6.61672 12.8669 6.91576 12.6814 6.91576 11.9597V7.0518H8.35924V11.9801C8.35924 13.4751 7.48288 14.1556 6.20428 14.1556C5.04958 14.1556 4.37932 13.5576 4.03906 12.8359M9.14326 12.6813L10.3185 12.0008C10.628 12.5061 11.0301 12.8773 11.7414 12.8773C12.3396 12.8773 12.7209 12.5782 12.7209 12.1658C12.7209 11.6709 12.3291 11.4956 11.6693 11.207L11.3085 11.0522C10.2671 10.609 9.57622 10.0522 9.57622 8.87676C9.57622 7.79412 10.4011 6.96924 11.69 6.96924C12.6076 6.96924 13.2675 7.28892 13.7417 8.12406L12.6179 8.8458C12.3704 8.40246 12.1024 8.2272 11.69 8.2272C11.2672 8.2272 10.9991 8.49528 10.9991 8.8458C10.9991 9.27882 11.2672 9.45414 11.8858 9.72228L12.2466 9.8769C13.4736 10.4028 14.1644 10.9388 14.1644 12.1451C14.1644 13.4444 13.1437 14.1557 11.7724 14.1557C10.4321 14.1557 9.56596 13.5165 9.14326 12.6813Z" fill="#323330"/>
</g>
<defs>
<clipPath id="clip0_1387_510">
<rect width="15.36" height="15.36" fill="white"/>
</clipPath>
</defs>
</svg>
