<svg width="16" height="16" viewBox="0 0 16 16" fill="none" xmlns="http://www.w3.org/2000/svg">
<g clip-path="url(#clip0_1387_559)">
<path d="M11.76 0H3.6C1.61177 0 0 1.61177 0 3.6V11.76C0 13.7482 1.61177 15.36 3.6 15.36H11.76C13.7482 15.36 15.36 13.7482 15.36 11.76V3.6C15.36 1.61177 13.7482 0 11.76 0Z" fill="#E9E9E9"/>
<path fill-rule="evenodd" clip-rule="evenodd" d="M11.5219 9.46011C11.5694 9.43281 11.6089 9.39349 11.6365 9.34611C11.664 9.29872 11.6786 9.24492 11.6788 9.19011L11.6844 7.38165C11.6846 7.32684 11.6992 7.27303 11.7267 7.22565C11.7542 7.17825 11.7938 7.13893 11.8413 7.11165L12.8216 6.54855C12.8934 6.50736 12.9786 6.49632 13.0585 6.51785C13.1384 6.53937 13.2065 6.59171 13.2479 6.66339C13.2753 6.71086 13.2897 6.7647 13.2897 6.81951V10.1073C13.2897 10.1622 13.2752 10.2163 13.2477 10.2638C13.2201 10.3114 13.1805 10.3509 13.1328 10.3782L9.43318 12.5032C9.38592 12.5304 9.33239 12.5446 9.27791 12.5447C9.22343 12.5447 9.16988 12.5306 9.12256 12.5035L6.2191 10.8429C6.17129 10.8156 6.13155 10.7761 6.1039 10.7285C6.07624 10.6808 6.06165 10.6267 6.0616 10.5717V8.91387C6.0616 8.91201 6.06382 8.91075 6.06568 8.91165C6.06605 8.9119 6.06649 8.91203 6.06693 8.91205C6.06738 8.91206 6.06782 8.91195 6.06821 8.91172C6.0686 8.9115 6.06891 8.91117 6.06912 8.91078C6.06933 8.91038 6.06943 8.90994 6.0694 8.90949V8.90763C6.0694 8.90637 6.07006 8.90511 6.07132 8.90451L8.46256 7.53075C8.46472 7.52949 8.46376 7.52607 8.4613 7.52607C8.46064 7.52605 8.46 7.52578 8.45953 7.52531C8.45906 7.52485 8.4588 7.52421 8.45878 7.52355L8.46346 5.89821C8.46372 5.84324 8.44946 5.78918 8.42212 5.7415C8.39478 5.69381 8.35533 5.65419 8.30776 5.62665C8.26022 5.59907 8.20625 5.58452 8.15129 5.58447C8.09633 5.58442 8.04233 5.59886 7.99474 5.62635L6.21754 6.65043C6.1701 6.67772 6.11633 6.69207 6.0616 6.69207C6.00687 6.69207 5.9531 6.67772 5.90566 6.65043L4.12282 5.62383C4.07533 5.59646 4.02147 5.58207 3.96666 5.58209C3.91185 5.58212 3.858 5.59657 3.81054 5.62399C3.76308 5.65141 3.72366 5.69083 3.69626 5.7383C3.66885 5.78577 3.65441 5.83962 3.6544 5.89443V8.83197C3.65446 8.88672 3.64012 8.94053 3.61283 8.988C3.58554 9.03547 3.54626 9.07493 3.49891 9.10244C3.45157 9.12994 3.39783 9.14452 3.34307 9.14471C3.28832 9.1449 3.23448 9.1307 3.18694 9.10353L2.19754 8.53791C2.14961 8.51054 2.10979 8.47097 2.08213 8.42322C2.05446 8.37547 2.03994 8.32124 2.04004 8.26605L2.0488 3.13167C2.04892 3.07693 2.06341 3.02319 2.09082 2.97581C2.11824 2.92844 2.15762 2.88909 2.20503 2.86172C2.25243 2.83435 2.30619 2.81991 2.36093 2.81985C2.41566 2.81979 2.46946 2.83411 2.51692 2.86137L5.90596 4.80795C5.95332 4.83515 6.00698 4.84947 6.0616 4.84947C6.11622 4.84947 6.16988 4.83515 6.21724 4.80795L9.60538 2.86137C9.67719 2.8201 9.76245 2.80903 9.84242 2.83061C9.92238 2.85219 9.9905 2.90465 10.0318 2.97645C10.0592 3.02391 10.0735 3.07779 10.0735 3.13263V8.26821C10.0735 8.32315 10.059 8.37713 10.0315 8.4247C10.0041 8.47227 9.96451 8.51175 9.9169 8.53917L8.14252 9.56103C8.09488 9.58854 8.05534 9.62812 8.02788 9.67579C8.00041 9.72346 7.986 9.77752 7.9861 9.83253C7.98621 9.88754 8.00085 9.94155 8.02854 9.98909C8.05623 10.0366 8.09598 10.076 8.14378 10.1032L9.12256 10.6604C9.16985 10.6874 9.22336 10.7015 9.2778 10.7014C9.33223 10.7013 9.3857 10.687 9.43288 10.6598L11.5219 9.46011ZM11.7272 4.85325C11.7273 4.90851 11.742 4.96275 11.7699 5.01048C11.7977 5.0582 11.8377 5.09769 11.8858 5.12493C11.9339 5.15216 11.9884 5.16615 12.0436 5.16547C12.0989 5.16478 12.153 5.14945 12.2004 5.12103L13.1379 4.55853C13.1841 4.53078 13.2224 4.49154 13.249 4.44462C13.2757 4.3977 13.2897 4.34469 13.2897 4.29075V3.14445C13.2896 3.10314 13.2813 3.06226 13.2653 3.02417C13.2493 2.98608 13.2259 2.95154 13.1965 2.92254C13.1671 2.89354 13.1322 2.87065 13.0939 2.8552C13.0556 2.83974 13.0146 2.83203 12.9733 2.83251C12.9181 2.8332 12.864 2.84852 12.8166 2.87691L11.8791 3.43941C11.8328 3.46713 11.7945 3.50637 11.7678 3.55331C11.7412 3.60025 11.7272 3.65329 11.7272 3.70725V4.85325Z" fill="#007FFF"/>
</g>
<defs>
<clipPath id="clip0_1387_559">
<rect width="15.36" height="15.36" fill="white"/>
</clipPath>
</defs>
</svg>
