<svg width="16" height="16" viewBox="0 0 16 16" fill="none" xmlns="http://www.w3.org/2000/svg">
<g clip-path="url(#clip0_1387_553)">
<path d="M11.76 0H3.6C1.61177 0 0 1.61177 0 3.6V11.76C0 13.7482 1.61177 15.36 3.6 15.36H11.76C13.7482 15.36 15.36 13.7482 15.36 11.76V3.6C15.36 1.61177 13.7482 0 11.76 0Z" fill="#E9E9E9"/>
<path d="M7.28669 1.68334C7.26089 1.68568 7.17875 1.6939 7.10483 1.69972C5.40047 1.85338 3.80399 2.77306 2.79281 4.18654C2.22983 4.97248 1.86965 5.86396 1.73363 6.8083C1.68557 7.13794 1.67969 7.23532 1.67969 7.6822C1.67969 8.12914 1.68557 8.22652 1.73369 8.5561C2.05973 10.8095 3.66329 12.7028 5.83805 13.4042C6.22751 13.5297 6.63803 13.6154 7.10489 13.667C7.28675 13.6869 8.07263 13.6869 8.25449 13.667C9.06035 13.5778 9.74303 13.3784 10.4163 13.0347C10.5195 12.9819 10.5395 12.9678 10.5254 12.9561C10.5161 12.9491 10.0761 12.359 9.54833 11.6459L8.58881 10.3497L7.38641 8.5702C6.72485 7.5919 6.18059 6.79186 6.17585 6.79186C6.17117 6.79072 6.16649 7.58134 6.16415 8.54674C6.16061 10.2371 6.15947 10.3051 6.13835 10.3449C6.10787 10.4024 6.08441 10.4259 6.03509 10.4517C5.99759 10.4705 5.96471 10.474 5.78759 10.474H5.58467L5.53067 10.44C5.49724 10.419 5.47008 10.3895 5.45207 10.3544L5.42747 10.3016L5.42987 7.94968L5.43335 5.5966L5.46971 5.55082C5.48849 5.52622 5.52839 5.49454 5.55653 5.4793C5.60459 5.45584 5.62337 5.4535 5.82629 5.4535C6.06563 5.4535 6.10547 5.46286 6.16769 5.5309C6.18527 5.54968 6.83627 6.53032 7.61519 7.71154C8.40375 8.90716 9.19279 10.1025 9.98231 11.2974L10.9325 12.7368L10.9806 12.7051C11.4063 12.4283 11.8568 12.0341 12.2134 11.6235C12.9723 10.752 13.4615 9.68926 13.6257 8.5561C13.6738 8.22652 13.6797 8.12914 13.6797 7.6822C13.6797 7.23532 13.6738 7.13794 13.6257 6.8083C13.2996 4.55494 11.6961 2.6617 9.52133 1.96024C9.13775 1.83586 8.72957 1.75024 8.27207 1.69864C8.15945 1.68688 7.38407 1.67404 7.28675 1.6834M9.74303 5.31274C9.79931 5.34088 9.84509 5.39482 9.86153 5.4511C9.87089 5.48164 9.87323 6.13384 9.87089 7.6036L9.86735 9.71272L9.49553 9.1426L9.12251 8.57254V7.03942C9.12251 6.04822 9.12719 5.491 9.13421 5.464C9.15299 5.39836 9.19403 5.34676 9.25037 5.31622C9.29843 5.29162 9.31607 5.28922 9.50021 5.28922C9.67385 5.28922 9.70433 5.29162 9.74303 5.31274Z" fill="black"/>
</g>
<defs>
<clipPath id="clip0_1387_553">
<rect width="15.36" height="15.36" fill="white"/>
</clipPath>
</defs>
</svg>
