<svg width="16" height="16" viewBox="0 0 16 16" fill="none" xmlns="http://www.w3.org/2000/svg">
<g clip-path="url(#clip0_1387_403)">
<path d="M11.76 0H3.6C1.61177 0 0 1.61177 0 3.6V11.76C0 13.7482 1.61177 15.36 3.6 15.36H11.76C13.7482 15.36 15.36 13.7482 15.36 11.76V3.6C15.36 1.61177 13.7482 0 11.76 0Z" fill="#FF6C37"/>
<path d="M10.1434 5.31688L7.11104 8.34934L6.25586 7.49422C9.23804 4.5121 9.5327 4.77082 10.1434 5.31688Z" fill="#EEEEEE"/>
<path d="M7.11097 8.42115C7.08937 8.42115 7.07503 8.41401 7.06063 8.39961L6.19831 7.54449C6.1915 7.538 6.18608 7.5302 6.18237 7.52156C6.17867 7.51292 6.17676 7.50361 6.17676 7.49421C6.17676 7.4848 6.17867 7.4755 6.18237 7.46685C6.18608 7.45821 6.1915 7.45041 6.19831 7.44393C9.23077 4.41141 9.54691 4.69887 10.1865 5.27373C10.2009 5.28813 10.2081 5.30253 10.2081 5.32407C10.2081 5.34567 10.2009 5.36001 10.1865 5.37429L7.15405 8.39961C7.14691 8.41401 7.12531 8.42115 7.11097 8.42115ZM6.35641 7.49421L7.11097 8.24871L10.0356 5.32407C9.50389 4.84977 9.14455 4.70607 6.35641 7.49421Z" fill="#FF6C37"/>
<path d="M7.98068 9.21864L7.1543 8.39226L10.1868 5.35986C10.9988 6.17898 9.78434 7.5084 7.98068 9.21864Z" fill="#EEEEEE"/>
<path d="M7.9809 9.29065C7.9593 9.29065 7.94502 9.28345 7.93062 9.26905L7.10424 8.44267C7.08984 8.42833 7.08984 8.41393 7.08984 8.39239C7.08984 8.37079 7.09704 8.35645 7.11144 8.34205L10.1438 5.30965C10.1503 5.30283 10.1581 5.29741 10.1668 5.2937C10.1754 5.29 10.1847 5.28809 10.1942 5.28809C10.2036 5.28809 10.2129 5.29 10.2215 5.2937C10.2302 5.29741 10.238 5.30283 10.2445 5.30965C10.3362 5.39454 10.4087 5.49812 10.4571 5.6134C10.5054 5.72868 10.5285 5.85298 10.5247 5.97793C10.5104 6.77551 9.60492 7.78873 8.03838 9.26905C8.01684 9.28345 7.99524 9.29065 7.9809 9.29065ZM7.25514 8.39239C7.71498 8.85943 7.90908 9.04633 7.9809 9.11815C9.18816 7.96843 10.3594 6.78991 10.3666 5.97793C10.3738 5.79109 10.302 5.60425 10.1798 5.46049L7.25514 8.39239Z" fill="#FF6C37"/>
<path d="M6.27058 7.51566L6.88138 8.12646C6.89572 8.14086 6.89572 8.1552 6.88138 8.1696C6.87418 8.1768 6.87418 8.1768 6.86704 8.1768L5.60224 8.44986C5.53762 8.45706 5.48014 8.41392 5.46574 8.34924C5.45854 8.3133 5.47294 8.27742 5.49454 8.25582L6.22744 7.52286C6.24184 7.50846 6.26338 7.50126 6.27058 7.51566Z" fill="#EEEEEE"/>
<path d="M5.58039 8.52167C5.47263 8.52167 5.39355 8.43539 5.39355 8.32757C5.39355 8.27735 5.41515 8.22701 5.45109 8.19107L6.18399 7.45811C6.22713 7.42217 6.28467 7.42217 6.32775 7.45811L6.93855 8.06891C6.98163 8.10485 6.98163 8.16953 6.93855 8.21261C6.92415 8.22701 6.90981 8.23421 6.88821 8.24141L5.62353 8.51447C5.60913 8.51447 5.59473 8.52167 5.58039 8.52167ZM6.24873 7.59461L5.54451 8.29883C5.53011 8.31323 5.52291 8.33477 5.53731 8.35631C5.54451 8.37791 5.56599 8.38511 5.58759 8.37791L6.77325 8.11919L6.24873 7.59461Z" fill="#FF6C37"/>
<path d="M11.7465 3.63506C11.2866 3.18956 10.5464 3.2039 10.1009 3.671C9.65536 4.13804 9.66976 4.871 10.1368 5.31656C10.3212 5.49472 10.5593 5.60684 10.8141 5.63544C11.0689 5.66404 11.326 5.6075 11.5453 5.47466L10.7261 4.65542L11.7465 3.63506Z" fill="#EEEEEE"/>
<path d="M10.941 5.71223C10.2584 5.71223 9.70508 5.15891 9.70508 4.47623C9.70508 3.79355 10.2584 3.24023 10.941 3.24023C11.2572 3.24023 11.5662 3.36239 11.7961 3.58517C11.8105 3.59957 11.8177 3.61397 11.8177 3.63545C11.8177 3.65705 11.8105 3.67145 11.7961 3.68579L10.8261 4.65587L11.5878 5.41757C11.6166 5.44637 11.6166 5.48945 11.5878 5.51819L11.5734 5.53259C11.3866 5.64749 11.1638 5.71223 10.941 5.71223ZM10.941 3.39119C10.3374 3.39119 9.84878 3.87977 9.85598 4.48343C9.85598 5.08703 10.3446 5.57567 10.9482 5.56853C11.1135 5.56853 11.2788 5.53253 11.4297 5.45351L10.6752 4.70621C10.6608 4.69181 10.6536 4.67741 10.6536 4.65587C10.6536 4.63427 10.6608 4.61993 10.6752 4.60559L11.6381 3.64265C11.4441 3.47741 11.1997 3.39119 10.941 3.39119Z" fill="#FF6C37"/>
<path d="M11.7675 3.65698L11.7532 3.64258L10.7256 4.6558L11.5376 5.46784C11.6167 5.4175 11.6957 5.36008 11.7604 5.2954C11.8693 5.18875 11.9559 5.06156 12.0152 4.92119C12.0746 4.78083 12.1055 4.63008 12.1062 4.47768C12.1068 4.32528 12.0772 4.17427 12.0191 4.03339C11.961 3.89251 11.8755 3.76457 11.7675 3.65698Z" fill="#EEEEEE"/>
<path d="M11.5454 5.54678C11.5238 5.54678 11.5094 5.53958 11.495 5.52518L10.6758 4.706C10.6614 4.6916 10.6543 4.67726 10.6543 4.65572C10.6543 4.63412 10.6614 4.61972 10.6758 4.60538L11.6962 3.58508C11.725 3.55628 11.7681 3.55628 11.7968 3.58508L11.8184 3.59948C12.2999 4.08086 12.2999 4.85696 11.8256 5.34566C11.7537 5.41748 11.6747 5.48216 11.5884 5.53244C11.5669 5.53964 11.5526 5.54678 11.5454 5.54678ZM10.8267 4.65578L11.5526 5.38154C11.61 5.34566 11.6675 5.29532 11.7106 5.25218C12.1202 4.84256 12.1418 4.17434 11.7465 3.74318L10.8267 4.65578Z" fill="#FF6C37"/>
<path d="M10.266 5.44623C10.183 5.36341 10.0706 5.31689 9.95336 5.31689C9.83614 5.31689 9.72371 5.36341 9.64076 5.44623L6.93164 8.15535L7.3844 8.60805L10.2516 6.09303C10.4384 5.93487 10.4527 5.65461 10.2947 5.46783C10.2803 5.46063 10.2731 5.45343 10.266 5.44623Z" fill="#EEEEEE"/>
<path d="M7.37714 8.6795C7.3556 8.6795 7.3412 8.6723 7.3268 8.65796L6.8741 8.20526C6.86729 8.19877 6.86186 8.19097 6.85816 8.18232C6.85445 8.17367 6.85254 8.16436 6.85254 8.15495C6.85254 8.14554 6.85445 8.13623 6.85816 8.12758C6.86186 8.11894 6.86729 8.11113 6.8741 8.10464L9.58316 5.39552C9.63072 5.3477 9.68727 5.30975 9.74955 5.28386C9.81183 5.25796 9.87862 5.24463 9.94607 5.24463C10.0135 5.24463 10.0803 5.25796 10.1426 5.28386C10.2049 5.30975 10.2614 5.3477 10.309 5.39552C10.3568 5.44308 10.3948 5.49963 10.4207 5.56191C10.4466 5.62419 10.4599 5.69098 10.4599 5.75843C10.4599 5.82588 10.4466 5.89267 10.4207 5.95495C10.3948 6.01723 10.3568 6.07378 10.309 6.12134L10.2874 6.14288L7.42022 8.65796C7.41308 8.6723 7.39868 8.6795 7.37714 8.6795ZM7.0322 8.15492L7.38434 8.50706L10.2012 6.03506C10.3593 5.9057 10.3737 5.66858 10.2443 5.51054C10.1149 5.35244 9.87782 5.3381 9.71972 5.46734C9.71258 5.47454 9.70538 5.48174 9.69098 5.48894L7.0322 8.15492Z" fill="#FF6C37"/>
<path d="M4.85515 11.2378C4.82635 11.2522 4.81201 11.2809 4.81915 11.3096L4.94137 11.8271C4.97017 11.8989 4.92697 11.9852 4.84795 12.0067C4.79047 12.0283 4.72585 12.0067 4.68991 11.9636L3.89941 11.1803L6.47917 8.60059L7.37023 8.61493L7.97383 9.21859C7.83013 9.34075 6.96061 10.1815 4.85515 11.2378Z" fill="#EEEEEE"/>
<path d="M4.79754 12.0786C4.74006 12.0786 4.68258 12.0571 4.64664 12.014L3.86334 11.2307C3.84894 11.2164 3.8418 11.202 3.8418 11.1804C3.8418 11.1589 3.849 11.1445 3.8634 11.1301L6.4431 8.55041C6.4575 8.53601 6.47904 8.52881 6.49344 8.52881L7.3845 8.54321C7.40604 8.54321 7.42038 8.55041 7.43472 8.56475L8.03838 9.16835C8.05278 9.18275 8.05992 9.20429 8.05992 9.22583C8.05992 9.24743 8.05278 9.26177 8.03118 9.27617L7.9809 9.31931C7.2192 9.98753 6.18438 10.6559 4.8981 11.2954L5.02032 11.8056C5.04186 11.899 4.99872 11.9996 4.9125 12.0499C4.86936 12.0714 4.83348 12.0786 4.79754 12.0786ZM4.00704 11.1804L4.74726 11.9134C4.76874 11.9493 4.81188 11.9637 4.84782 11.9421C4.88376 11.9206 4.89816 11.8775 4.87662 11.8415L4.75446 11.3241C4.74006 11.2595 4.76874 11.202 4.82628 11.1732C6.09816 10.5337 7.12578 9.87263 7.88028 9.21869L7.34856 8.68691L6.52218 8.67251L4.00704 11.1804Z" fill="#FF6C37"/>
<path d="M3.28831 11.7987L3.90631 11.1807L4.82611 12.1005L3.36019 11.9999C3.29551 11.9927 3.25237 11.9352 3.25957 11.8705C3.25957 11.8417 3.26671 11.813 3.28831 11.7987Z" fill="#EEEEEE"/>
<path d="M4.8258 12.1647L3.35268 12.0641C3.24486 12.0569 3.17298 11.9636 3.18018 11.8557C3.18738 11.8126 3.20178 11.7695 3.23772 11.7408L3.85572 11.1228C3.86221 11.116 3.87001 11.1105 3.87865 11.1068C3.88729 11.1031 3.8966 11.1012 3.906 11.1012C3.91541 11.1012 3.92471 11.1031 3.93336 11.1068C3.942 11.1105 3.9498 11.116 3.95628 11.1228L4.87608 12.0426C4.89768 12.0641 4.90488 12.0929 4.89048 12.1217C4.87608 12.1504 4.85448 12.1647 4.8258 12.1647ZM3.906 11.2809L3.33834 11.8485C3.31674 11.8629 3.31674 11.8989 3.33834 11.9132C3.34554 11.9204 3.35274 11.9276 3.36708 11.9276L4.63896 12.0138L3.906 11.2809ZM6.22704 8.9311C6.1839 8.9311 6.15516 8.89516 6.15516 8.85922C6.15516 8.83768 6.16236 8.82334 6.17676 8.80894L6.87378 8.11192C6.88027 8.1051 6.88807 8.09967 6.89672 8.09596C6.90537 8.09225 6.91468 8.09033 6.92409 8.09033C6.9335 8.09033 6.94282 8.09225 6.95147 8.09596C6.96012 8.09967 6.96792 8.1051 6.9744 8.11192L7.4271 8.56462C7.44864 8.58616 7.45584 8.6077 7.44864 8.6365C7.44144 8.65804 7.4199 8.67958 7.39122 8.68678L6.24144 8.9311H6.22704ZM6.92406 8.26282L6.44982 8.73712L7.22586 8.57176L6.92406 8.26282Z" fill="#FF6C37"/>
<path d="M7.36966 8.61493L6.57922 8.78743C6.52174 8.80183 6.4642 8.76589 6.44986 8.70841C6.44266 8.67247 6.44986 8.63653 6.4786 8.60779L6.9169 8.16943L7.36966 8.61493Z" fill="#EEEEEE"/>
<path d="M6.56539 8.8595C6.54173 8.85974 6.51827 8.85526 6.49636 8.84632C6.47446 8.83738 6.45456 8.82415 6.43783 8.80742C6.4211 8.79069 6.40788 8.77079 6.39893 8.74889C6.38999 8.72699 6.38551 8.70352 6.38575 8.67986C6.38575 8.62958 6.40729 8.58644 6.43603 8.55056L6.87439 8.1122C6.88088 8.10538 6.88868 8.09995 6.89733 8.09624C6.90598 8.09253 6.91529 8.09062 6.9247 8.09062C6.93411 8.09062 6.94343 8.09253 6.95207 8.09624C6.96072 8.09995 6.96853 8.10538 6.97501 8.1122L7.42771 8.5649C7.44925 8.58644 7.45645 8.60798 7.44925 8.63678C7.44205 8.65832 7.42051 8.67986 7.39183 8.68706L6.60133 8.8595H6.56539ZM6.92467 8.2631L6.53665 8.65112C6.52231 8.66552 6.52231 8.67986 6.52945 8.69426C6.53665 8.7086 6.55105 8.7158 6.57259 8.7158L7.23367 8.57204L6.92467 8.2631ZM11.7752 4.34666C11.7609 4.30358 11.7105 4.28204 11.6674 4.29644C11.6243 4.31072 11.6028 4.36106 11.6172 4.4042C11.6172 4.4114 11.6243 4.4186 11.6243 4.42574C11.6674 4.51202 11.6531 4.61978 11.5956 4.6988C11.5668 4.7348 11.574 4.78508 11.6028 4.81382C11.6387 4.8425 11.689 4.83542 11.7177 4.79942C11.8255 4.66286 11.8471 4.49042 11.7752 4.34666Z" fill="#FF6C37"/>
</g>
<defs>
<clipPath id="clip0_1387_403">
<rect width="15.36" height="15.36" fill="white"/>
</clipPath>
</defs>
</svg>
