<svg width="16" height="16" viewBox="0 0 16 16" fill="none" xmlns="http://www.w3.org/2000/svg">
<path d="M11.76 0H3.6C1.61177 0 0 1.61177 0 3.6V11.76C0 13.7482 1.61177 15.36 3.6 15.36H11.76C13.7482 15.36 15.36 13.7482 15.36 11.76V3.6C15.36 1.61177 13.7482 0 11.76 0Z" fill="#242938"/>
<path d="M7.67991 8.81685C8.29815 8.81685 8.79927 8.31566 8.79927 7.69748C8.79927 7.0793 8.29815 6.57812 7.67991 6.57812C7.06173 6.57812 6.56055 7.0793 6.56055 7.69748C6.56055 8.31566 7.06173 8.81685 7.67991 8.81685Z" fill="#00D8FF"/>
<path d="M7.68078 5.42188C9.18366 5.42188 10.5798 5.63752 11.6325 5.99998C12.9008 6.4366 13.6807 7.09845 13.6807 7.69779C13.6807 8.32233 12.8542 9.02548 11.4922 9.47673C10.4624 9.81789 9.1074 9.99598 7.68078 9.99598C6.2181 9.99598 4.833 9.82881 3.79164 9.47295C2.47416 9.02265 1.68066 8.31045 1.68066 7.69779C1.68066 7.10331 2.42526 6.44656 3.67578 6.0106C4.73238 5.6422 6.16296 5.42188 7.68054 5.42188H7.68078Z" stroke="#00D8FF" stroke-width="0.53466"/>
<path d="M5.69925 6.56618C6.45009 5.2643 7.33431 4.16258 8.17419 3.43178C9.18603 2.55116 10.149 2.20628 10.6681 2.50562C11.2092 2.81762 11.4054 3.8849 11.1159 5.29022C10.8972 6.35264 10.3744 7.6154 9.66165 8.85128C8.93091 10.1184 8.09421 11.2347 7.26579 11.9588C6.21753 12.8751 5.20407 13.2067 4.67337 12.9007C4.15839 12.6039 3.96147 11.6307 4.20855 10.3296C4.41729 9.23018 4.94115 7.88084 5.69901 6.56618H5.69925Z" stroke="#00D8FF" stroke-width="0.53466"/>
<path d="M5.70092 8.85464C4.94798 7.5542 4.43534 6.23768 4.22138 5.14508C3.9638 3.82862 4.1459 2.82212 4.6646 2.52188C5.20514 2.20892 6.22772 2.57192 7.30064 3.5246C8.11184 4.24484 8.94482 5.32826 9.6596 6.56294C10.3924 7.82882 10.9417 9.11131 11.1553 10.1906C11.4257 11.5564 11.2069 12.6 10.6767 12.9069C10.1622 13.2048 9.22076 12.8895 8.2169 12.0256C7.36874 11.2957 6.4613 10.168 5.70092 8.85464Z" stroke="#00D8FF" stroke-width="0.53466"/>
</svg>
