<svg width="16" height="16" viewBox="0 0 16 16" fill="none" xmlns="http://www.w3.org/2000/svg">
<g clip-path="url(#clip0_1387_535)">
<path d="M11.76 0H3.6C1.61177 0 0 1.61177 0 3.6V11.76C0 13.7482 1.61177 15.36 3.6 15.36H11.76C13.7482 15.36 15.36 13.7482 15.36 11.76V3.6C15.36 1.61177 13.7482 0 11.76 0Z" fill="#764ABC"/>
<path d="M9.99443 9.93591C10.4373 9.89007 10.7732 9.50829 10.7579 9.05019C10.7427 8.59209 10.3609 8.22561 9.90281 8.22561H9.87227C9.39887 8.24085 9.03239 8.63787 9.04763 9.11127C9.06293 9.34035 9.15455 9.53883 9.29195 9.67629C8.77277 10.6994 7.97873 11.4477 6.78761 12.0738C5.97827 12.5013 5.13839 12.654 4.29851 12.5472C3.61133 12.4555 3.07691 12.1501 2.74091 11.6462C2.25227 10.8979 2.20649 10.0886 2.61875 9.27927C2.90891 8.69895 3.36701 8.27139 3.65717 8.05761C3.59609 7.85913 3.50447 7.52313 3.45863 7.27881C1.24445 8.88225 1.47347 11.0506 2.14535 12.0738C2.64935 12.8373 3.67241 13.3107 4.80245 13.3107C5.10785 13.3107 5.41325 13.2801 5.71865 13.2037C7.67333 12.822 9.15455 11.6614 9.99443 9.93591Z" fill="white"/>
<path d="M12.6824 8.04253C11.5219 6.68341 9.81163 5.93521 7.85701 5.93521H7.61269C7.47523 5.66029 7.18507 5.47705 6.86443 5.47705H6.83389C6.36049 5.49235 5.99401 5.88937 6.00925 6.36277C6.02455 6.82087 6.40627 7.18735 6.86443 7.18735H6.89497C7.23091 7.17211 7.52107 6.95833 7.64323 6.66817H7.91809C9.07861 6.66817 10.1781 7.00411 11.1707 7.66075C11.9342 8.16469 12.484 8.82133 12.7894 9.61537C13.049 10.2567 13.0337 10.8828 12.7588 11.4173C12.3313 12.2266 11.6135 12.6695 10.6667 12.6695C10.0559 12.6695 9.47569 12.4863 9.17023 12.3488C9.00229 12.5015 8.69689 12.7458 8.48311 12.8985C9.13969 13.2039 9.81163 13.3719 10.453 13.3719C11.9189 13.3719 13.0031 12.5626 13.4155 11.7532C13.8583 10.8676 13.8278 9.34051 12.6824 8.04253Z" fill="white"/>
<path d="M4.9251 10.1955C4.9404 10.6536 5.32212 11.0201 5.78028 11.0201H5.81082C6.28416 11.0048 6.6507 10.6078 6.6354 10.1344C6.62016 9.6763 6.23838 9.30982 5.78028 9.30982H5.74968C5.7192 9.30982 5.67336 9.30982 5.64288 9.32512C5.01672 8.2867 4.75716 7.15666 4.84878 5.93506C4.90986 5.01886 5.21526 4.22476 5.74974 3.56806C6.19254 3.0031 7.04772 2.72824 7.62798 2.71294C9.24666 2.6824 9.93384 4.6981 9.97962 5.5075C10.1782 5.55328 10.5141 5.66014 10.7432 5.73652C10.5599 3.26278 9.03288 1.97998 7.5669 1.97998C6.19254 1.97998 4.9251 2.97256 4.42116 4.43854C3.71874 6.39316 4.17684 8.2714 5.03196 9.75268C4.95564 9.85954 4.9098 10.0275 4.9251 10.1955Z" fill="white"/>
</g>
<defs>
<clipPath id="clip0_1387_535">
<rect width="15.36" height="15.36" fill="white"/>
</clipPath>
</defs>
</svg>
