<svg width="16" height="16" viewBox="0 0 16 16" fill="none" xmlns="http://www.w3.org/2000/svg">
<g clip-path="url(#clip0_1387_543)">
<path d="M11.76 0H3.6C1.61177 0 0 1.61177 0 3.6V11.76C0 13.7482 1.61177 15.36 3.6 15.36H11.76C13.7482 15.36 15.36 13.7482 15.36 11.76V3.6C15.36 1.61177 13.7482 0 11.76 0Z" fill="#CD6799"/>
<mask id="mask0_1387_543" style="mask-type:luminance" maskUnits="userSpaceOnUse" x="1" y="3" width="13" height="10">
<path d="M1.68066 3.18018H13.6807V12.1747H1.68066V3.18018Z" fill="white"/>
</mask>
<g mask="url(#mask0_1387_543)">
<path d="M12.0067 8.35006C11.5882 8.35222 11.2246 8.45302 10.9201 8.60194C10.8084 8.38072 10.6967 8.18356 10.6769 8.03896C10.655 7.8703 10.6288 7.76734 10.655 7.5658C10.6813 7.36426 10.7996 7.07734 10.7974 7.05544C10.7953 7.03348 10.7711 6.93058 10.5302 6.92836C10.2892 6.9262 10.0811 6.97438 10.057 7.03792C10.0329 7.1014 9.98694 7.246 9.95628 7.39498C9.91464 7.61404 9.4743 8.39608 9.22242 8.8057C9.14136 8.6458 9.07128 8.50558 9.05592 8.39386C9.03402 8.2252 9.00774 8.12224 9.03402 7.9207C9.0603 7.71916 9.17862 7.43218 9.1764 7.41028C9.17424 7.38838 9.15012 7.28542 8.90916 7.28326C8.6682 7.28104 8.46006 7.32922 8.436 7.39276C8.41188 7.4563 8.3856 7.60528 8.3352 7.74982C8.28486 7.89442 7.69998 9.20002 7.54662 9.53734C7.48466 9.67385 7.41966 9.80896 7.35168 9.94258C7.35168 9.94258 7.34946 9.94918 7.34292 9.9601C7.32154 10.002 7.29962 10.0436 7.27716 10.085V10.0872C7.24434 10.1463 7.20924 10.2011 7.19172 10.2011C7.17858 10.2011 7.15452 10.0434 7.1961 9.8287C7.28376 9.37522 7.49184 8.66986 7.48968 8.6458C7.48968 8.63266 7.5291 8.50996 7.35384 8.44642C7.18296 8.38288 7.12164 8.48806 7.10628 8.48806C7.09098 8.48806 7.08 8.52532 7.08 8.52532C7.08 8.52532 7.27062 7.7323 6.7164 7.7323C6.37026 7.7323 5.89272 8.11126 5.6562 8.45302C5.38724 8.59937 5.1185 8.74613 4.84998 8.8933C4.7208 8.9656 4.58718 9.0379 4.46226 9.10582C4.4535 9.09706 4.44474 9.08608 4.43598 9.07732C3.76566 8.36098 2.52582 7.855 2.57838 6.89332C2.59812 6.5428 2.7186 5.62276 4.95954 4.50556C6.804 3.5965 8.27172 3.84838 8.52582 4.40698C8.88942 5.20438 7.7394 6.68518 5.83362 6.89986C5.1063 6.98092 4.72518 6.70054 4.62882 6.59542C4.52802 6.48586 4.51266 6.47932 4.4754 6.50122C4.41408 6.53404 4.4535 6.63262 4.4754 6.68956C4.5324 6.83854 4.76676 7.1014 5.16324 7.23064C5.51376 7.34458 6.36588 7.40812 7.39764 7.00942C8.5521 6.56254 9.45462 5.32042 9.18954 4.27996C8.92452 3.22408 7.17204 2.87578 5.51376 3.46504C4.52796 3.81556 3.459 4.36756 2.6901 5.08606C1.7766 5.94046 1.63206 6.68302 1.69122 6.99406C1.90368 8.09812 3.42612 8.81662 4.03512 9.34894C4.00446 9.36646 3.97596 9.38182 3.9519 9.39496C3.6474 9.5461 2.4864 10.1529 2.1972 10.7948C1.86864 11.522 2.24982 12.0434 2.5017 12.1134C3.28374 12.3303 4.08768 11.9404 4.51926 11.2964C4.95078 10.6523 4.89822 9.81556 4.69884 9.43222C4.69671 9.42736 4.69374 9.42291 4.69008 9.41908C4.76898 9.37306 4.84998 9.32488 4.92888 9.27886C5.07385 9.19319 5.22064 9.11065 5.36916 9.0313C5.2947 9.23506 5.23992 9.47818 5.21364 9.8287C5.18082 10.2405 5.34948 10.775 5.5707 10.9853C5.66928 11.0773 5.78538 11.0795 5.8599 11.0795C6.11838 11.0795 6.23448 10.8648 6.36372 10.6107C6.5214 10.2996 6.66384 9.9382 6.66384 9.9382C6.66384 9.9382 6.48636 10.9152 6.96828 10.9152C7.14354 10.9152 7.32096 10.6874 7.39986 10.5713V10.5735C7.39986 10.5735 7.40424 10.5669 7.413 10.5516C7.43052 10.5231 7.44144 10.5056 7.44144 10.5056V10.5012C7.51158 10.3785 7.66926 10.1003 7.90368 9.63808C8.20596 9.04228 8.49732 8.2975 8.49732 8.2975C8.49732 8.2975 8.5236 8.4793 8.61342 8.78158C8.66598 8.95906 8.77554 9.154 8.86314 9.3424C8.79306 9.44098 8.74926 9.4957 8.74926 9.4957L8.75142 9.49792C8.69448 9.57238 8.63316 9.65344 8.56524 9.73228C8.32644 10.0171 8.04168 10.3435 8.00226 10.4377C7.95624 10.5494 7.96722 10.6304 8.05482 10.6962C8.11836 10.7444 8.23224 10.7509 8.34834 10.7444C8.56302 10.729 8.71422 10.6764 8.78868 10.6436C8.90478 10.602 9.04062 10.5384 9.16764 10.4442C9.40206 10.2712 9.54444 10.0236 9.5313 9.69724C9.5247 9.5176 9.46554 9.33802 9.3933 9.1693C9.4152 9.13864 9.43488 9.10798 9.45678 9.07732C9.82704 8.53624 10.114 7.9426 10.114 7.9426C10.114 7.9426 10.1402 8.1244 10.2301 8.42674C10.2739 8.58004 10.3637 8.74654 10.4426 8.90866C10.0943 9.19126 9.8796 9.51982 9.80292 9.7345C9.66492 10.1332 9.77226 10.3128 9.97596 10.3544C10.068 10.3742 10.1994 10.3304 10.2958 10.2887C10.4185 10.2493 10.5631 10.1814 10.7011 10.0806C10.9354 9.90754 11.1611 9.66658 11.1479 9.34018C11.1413 9.19126 11.1019 9.04444 11.0471 8.90206C11.3429 8.77942 11.7241 8.7115 12.2104 8.76844C13.2531 8.89114 13.459 9.54172 13.4195 9.81556C13.3801 10.0893 13.1611 10.2383 13.0888 10.2843C13.0165 10.3304 12.9924 10.3457 12.999 10.3785C13.0078 10.4267 13.0428 10.4245 13.1041 10.4157C13.1896 10.4004 13.6517 10.1945 13.6715 9.6907C13.7044 9.04666 13.091 8.34346 12.0067 8.35006ZM3.96282 11.062C3.61674 11.4387 3.13482 11.5812 2.92668 11.4607C2.70324 11.3314 2.79084 10.775 3.21588 10.3763C3.4743 10.1332 3.8073 9.90754 4.02852 9.76954C4.07892 9.73888 4.15338 9.69508 4.2432 9.6403C4.25856 9.63154 4.26732 9.62716 4.26732 9.62716L4.31988 9.59428C4.4754 10.1639 4.32642 10.6655 3.96282 11.062ZM6.48204 9.34894C6.36156 9.64252 6.10968 10.3938 5.95632 10.3523C5.82492 10.3172 5.74386 9.74764 5.93004 9.18466C6.02424 8.90206 6.22356 8.56474 6.33966 8.43328C6.52806 8.22298 6.73614 8.1529 6.78654 8.23834C6.85008 8.35006 6.55656 9.16492 6.48204 9.34894ZM8.56092 10.3435C8.51052 10.3698 8.46234 10.3873 8.44044 10.3742C8.42508 10.3654 8.46234 10.3304 8.46234 10.3304C8.46234 10.3304 8.72304 10.0499 8.826 9.9229C8.8851 9.84838 8.95524 9.76078 9.0297 9.6622V9.6907C9.0297 10.0259 8.70552 10.2515 8.56092 10.3435ZM10.1644 9.97762C10.1272 9.95134 10.1338 9.86374 10.2586 9.5899C10.3068 9.48256 10.4207 9.30298 10.6157 9.12988C10.6376 9.20002 10.6529 9.26788 10.6507 9.33142C10.6486 9.75424 10.3462 9.91192 10.1644 9.97762Z" fill="white"/>
</g>
</g>
<defs>
<clipPath id="clip0_1387_543">
<rect width="15.36" height="15.36" fill="white"/>
</clipPath>
</defs>
</svg>
