<svg width="16" height="16" viewBox="0 0 16 16" fill="none" xmlns="http://www.w3.org/2000/svg">
<path d="M11.76 0H3.6C1.61177 0 0 1.61177 0 3.6V11.76C0 13.7482 1.61177 15.36 3.6 15.36H11.76C13.7482 15.36 15.36 13.7482 15.36 11.76V3.6C15.36 1.61177 13.7482 0 11.76 0Z" fill="#E9E9E9"/>
<path fill-rule="evenodd" clip-rule="evenodd" d="M4.98027 6.59994C5.34027 5.15994 6.24033 4.43994 7.68027 4.43994C9.84027 4.43994 10.1103 6.05994 11.1903 6.32994C11.9103 6.51 12.5403 6.24 13.0803 5.51994C12.7203 6.95988 11.8202 7.67994 10.3803 7.67994C8.22027 7.67994 7.95027 6.05994 6.87027 5.78994C6.15021 5.60994 5.52027 5.87994 4.98027 6.59994ZM2.28027 9.83994C2.64027 8.4 3.54027 7.67994 4.98027 7.67994C7.14027 7.67994 7.41027 9.29994 8.49027 9.56994C9.21033 9.75 9.84027 9.48 10.3803 8.75994C10.0203 10.1999 9.12021 10.9199 7.68027 10.9199C5.52027 10.9199 5.25027 9.29994 4.17027 9.02994C3.45027 8.84988 2.82027 9.11988 2.28027 9.83994Z" fill="url(#paint0_linear_1387_523)"/>
<defs>
<linearGradient id="paint0_linear_1387_523" x1="5.19027" y1="4.43994" x2="9.81027" y2="11.1299" gradientUnits="userSpaceOnUse">
<stop stop-color="#32B1C1"/>
<stop offset="1" stop-color="#14C6B7"/>
</linearGradient>
</defs>
</svg>
