<svg width="16" height="16" viewBox="0 0 16 16" fill="none" xmlns="http://www.w3.org/2000/svg">
<path d="M11.76 0H3.6C1.61177 0 0 1.61177 0 3.6V11.76C0 13.7482 1.61177 15.36 3.6 15.36H11.76C13.7482 15.36 15.36 13.7482 15.36 11.76V3.6C15.36 1.61177 13.7482 0 11.76 0Z" fill="#007ACC"/>
<path d="M3.39646 7.73111L3.3916 8.36015H5.3908V14.0409H6.805V8.36015H8.8042V7.74329C8.8042 7.40195 8.79694 7.11671 8.78716 7.10939C8.77984 7.09967 7.56322 7.09475 6.08818 7.09721L3.40384 7.10453L3.39646 7.73111ZM12.3938 7.08665C12.7839 7.18421 13.0814 7.35731 13.3544 7.64009C13.4958 7.79129 13.7055 8.06681 13.7226 8.13263C13.7274 8.15213 13.0594 8.60075 12.6547 8.85185C12.6401 8.86163 12.5815 8.79821 12.5157 8.70071C12.3182 8.41301 12.111 8.28863 11.794 8.26673C11.3283 8.23499 11.0285 8.47883 11.0309 8.88599C11.0309 9.00545 11.048 9.07613 11.0967 9.17369C11.1991 9.38579 11.3893 9.51257 11.9867 9.77099C13.0862 10.244 13.5567 10.5561 13.8494 10.9998C14.1761 11.4947 14.2492 12.2847 14.0273 12.8723C13.7835 13.511 13.1789 13.945 12.3279 14.0889C12.0647 14.1352 11.4405 14.1279 11.1577 14.0767C10.5408 13.967 9.95572 13.6622 9.59488 13.2624C9.45346 13.1063 9.17794 12.6992 9.19504 12.6699C9.2023 12.6602 9.26572 12.6212 9.3364 12.5797C9.40468 12.5407 9.66316 12.392 9.90694 12.2506L10.3482 11.9945L10.4409 12.1311C10.5701 12.3286 10.8529 12.5992 11.0236 12.6894C11.5136 12.9479 12.1866 12.9113 12.5181 12.6139C12.6596 12.4846 12.7181 12.3505 12.7181 12.1531C12.7181 11.975 12.6961 11.897 12.6035 11.7629C12.484 11.5923 12.2402 11.4484 11.5478 11.1485C10.7554 10.8072 10.4141 10.5951 10.102 10.2586C9.92158 10.0636 9.75088 9.75149 9.6802 9.49061C9.6217 9.27365 9.60706 8.72993 9.65338 8.51051C9.8167 7.74497 10.3946 7.21103 11.2284 7.05251C11.499 7.00133 12.128 7.02083 12.3938 7.08665Z" fill="white"/>
</svg>
