<svg width="16" height="16" viewBox="0 0 16 16" fill="none" xmlns="http://www.w3.org/2000/svg">
<g clip-path="url(#clip0_1387_454)">
<path d="M11.76 0H3.6C1.61177 0 0 1.61177 0 3.6V11.76C0 13.7482 1.61177 15.36 3.6 15.36H11.76C13.7482 15.36 15.36 13.7482 15.36 11.76V3.6C15.36 1.61177 13.7482 0 11.76 0Z" fill="#E9E9E9"/>
<path d="M2.02309 6.01238C2.02309 6.01238 1.73899 5.8076 2.07991 5.53418L2.87407 4.82402C2.87407 4.82402 3.10135 4.58492 3.34159 4.79324L10.6705 10.342V13.0027C10.6705 13.0027 10.667 13.4206 10.1308 13.3744L2.02309 6.01238Z" fill="#2489CA"/>
<path d="M3.91186 7.72754L2.02282 9.44492C2.02282 9.44492 1.82866 9.58934 2.02282 9.8474L2.89984 10.6451C2.89984 10.6451 3.10816 10.8688 3.4159 10.6143L5.41858 9.09578L3.91186 7.72754Z" fill="#1070B3"/>
<path d="M7.22867 7.74156L10.6931 5.09616L10.6706 2.44962C10.6706 2.44962 10.5227 1.872 10.0291 2.17266L5.41895 6.36852L7.22867 7.74156Z" fill="#0877B9"/>
<path d="M10.1311 13.3779C10.3323 13.5838 10.5761 13.5164 10.5761 13.5164L13.276 12.186C13.6216 11.9505 13.573 11.6581 13.573 11.6581V3.71373C13.573 3.36453 13.2155 3.24387 13.2155 3.24387L10.8756 2.11587C10.3643 1.79985 10.0293 2.17269 10.0293 2.17269C10.0293 2.17269 10.4601 1.86261 10.6708 2.44965V12.9541C10.6711 13.0258 10.6554 13.0966 10.6247 13.1613C10.5631 13.2856 10.4294 13.4016 10.1086 13.353L10.1311 13.3779Z" fill="#3C99D4"/>
</g>
<defs>
<clipPath id="clip0_1387_454">
<rect width="15.36" height="15.36" fill="white"/>
</clipPath>
</defs>
</svg>
