<svg width="15" height="15" viewBox="0 0 15 15" fill="none" xmlns="http://www.w3.org/2000/svg">
<g clip-path="url(#clip0_1387_571)">
<path d="M11.4844 0H3.51562C1.574 0 0 1.574 0 3.51562V11.4844C0 13.426 1.574 15 3.51562 15H11.4844C13.426 15 15 13.426 15 11.4844V3.51562C15 1.574 13.426 0 11.4844 0Z" fill="#F4F2EE"/>
<path d="M10.6641 2.92969H12.7734L7.5 12.0264L2.22656 2.92969H6.26074L7.5 5.03906L8.71289 2.92969H10.6641Z" fill="#41B883"/>
<path d="M2.22656 2.92969L7.5 12.0264L12.7734 2.92969H10.6641L7.5 8.38769L4.30957 2.92969H2.22656Z" fill="#41B883"/>
<path d="M4.30957 2.92969L7.5 8.41406L10.6641 2.92969H8.71289L7.5 5.03906L6.26074 2.92969H4.30957Z" fill="#35495E"/>
</g>
<defs>
<clipPath id="clip0_1387_571">
<rect width="15" height="15" fill="white"/>
</clipPath>
</defs>
</svg>
