<svg width="16" height="16" viewBox="0 0 16 16" fill="none" xmlns="http://www.w3.org/2000/svg">
<path d="M11.76 0H3.6C1.61177 0 0 1.61177 0 3.6V11.76C0 13.7482 1.61177 15.36 3.6 15.36H11.76C13.7482 15.36 15.36 13.7482 15.36 11.76V3.6C15.36 1.61177 13.7482 0 11.76 0Z" fill="#E9E9E9"/>
<path d="M2.97318 10.0547L2.30358 10.2993L2.26758 12.2913L4.58558 11.4445C3.79058 11.1775 3.20998 10.7076 2.97318 10.0547Z" fill="#FDBD39"/>
<path d="M3.32335 7.94727L1 8.79602L2.3033 10.2988L2.9729 10.0542C2.7368 9.40317 2.8824 8.66722 3.32335 7.94727Z" fill="#F69833"/>
<path d="M7.23275 5.07304C4.27419 6.15384 2.36685 8.38404 2.97255 10.0544L13.6864 6.14044C13.0807 4.47009 10.1913 3.99219 7.23275 5.07294" fill="#FECF33"/>
<path d="M9.42636 11.122C12.3849 10.0412 14.2959 7.82083 13.6865 6.14062L2.97266 10.0545C3.58196 11.7347 6.46781 12.2027 9.42636 11.122Z" fill="#EE6723"/>
<path d="M13.6865 6.14062L2.97266 10.0546C3.18246 10.6331 3.98246 10.9181 5.10501 10.9181C6.19936 10.9181 7.60026 10.6475 9.06076 10.1139C12.0193 9.03313 14.1009 7.28322 13.6865 6.14072" fill="#F69833"/>
<path d="M11.554 5.27686C10.4596 5.27686 9.05872 5.54756 7.59822 6.08106C4.63972 7.16186 2.55817 8.91176 2.97247 10.0543L13.6863 6.14036C13.4766 5.56186 12.6765 5.27686 11.554 5.27686Z" fill="#FDBD39"/>
<path d="M10.9629 12.3966H10.9628C10.6476 12.3966 10.1826 12.1118 9.58062 11.5503C8.86842 10.8859 8.05263 9.91286 7.28353 8.81031C6.51438 7.70781 5.88237 6.60561 5.50392 5.70671C5.09157 4.72706 5.03278 4.12471 5.32918 3.91641C5.39418 3.87076 5.47253 3.84766 5.56198 3.84766C5.80308 3.84766 6.27282 4.02716 7.14147 4.88231L7.16048 4.90101L7.15788 4.92756C7.15194 4.98893 7.14651 5.05035 7.14158 5.11181L7.13193 5.23261L7.04668 5.14676C6.11078 4.20386 5.69877 4.10206 5.56507 4.10206C5.52692 4.10206 5.49657 4.10981 5.47482 4.12511C5.34622 4.21546 5.33798 4.65786 5.73773 5.60751C6.10943 6.49041 6.73222 7.57601 7.49142 8.66416C8.25068 9.75246 9.05393 10.7112 9.75343 11.3637C10.5076 12.0672 10.8475 12.1432 10.9586 12.1432C10.997 12.1432 11.0282 12.135 11.0513 12.1187C11.1869 12.0234 11.1871 11.5495 10.7413 10.5273L10.7208 10.4804L10.7656 10.4559C10.8104 10.4314 10.8538 10.4072 10.8944 10.3841L10.9481 10.3536L10.9728 10.4103C11.2889 11.1345 11.5844 12.055 11.1969 12.3274C11.1316 12.3733 11.0529 12.3966 10.9629 12.3966ZM10.9628 12.2848H10.9629L10.9629 12.3407L10.9628 12.2848Z" fill="#EE6723"/>
<path d="M9.49853 11.0913L9.49403 11.147C9.41923 12.0725 9.22228 13.1852 8.70878 13.2302C8.69848 13.2311 8.68778 13.2316 8.67703 13.2316C8.32823 13.2316 7.99818 12.7318 7.69618 11.7461C7.41038 10.8135 7.18868 9.56145 7.07178 8.22045C6.95488 6.8797 6.95663 5.60795 7.07668 4.63955C7.20763 3.58425 7.45673 3.0331 7.81718 3.0015C7.82788 3.0005 7.83893 3 7.84983 3C8.10288 3 8.48428 3.2865 8.87468 4.6212L8.61978 4.6704C8.48943 4.2244 8.34733 3.86165 8.20628 3.6124C8.07583 3.38185 7.94898 3.2549 7.84913 3.2549C7.84583 3.2549 7.84253 3.255 7.83928 3.25525C7.68303 3.269 7.45548 3.648 7.32858 4.671C7.21068 5.6221 7.20923 6.87475 7.32458 8.19825C7.44003 9.52195 7.65813 10.7553 7.93878 11.6712C8.06443 12.0814 8.20228 12.4194 8.33743 12.6488C8.46203 12.8603 8.58263 12.9768 8.67693 12.9768C8.68023 12.9768 8.68343 12.9767 8.68668 12.9764C8.83618 12.9633 9.11793 12.5689 9.23648 11.1812L9.49853 11.0913Z" fill="#EE6723"/>
</svg>
